<svg width="124" height="124" viewBox="0 0 124 124" fill="none" xmlns="http://www.w3.org/2000/svg">
<path d="M97.1236 90.6933L92.6727 79.8174L86.0294 82.5361L90.4857 93.425L90.491 93.4379C91.1334 94.9905 90.3965 96.6986 88.9027 97.2996L69.8927 105.098L69.8825 105.102C68.3299 105.744 66.6218 105.007 66.0208 103.514L61.5564 92.6049L54.9132 95.3237L59.3658 106.204C61.4805 111.443 67.4365 113.879 72.6215 111.737L72.6271 111.734L91.5943 103.954C96.8319 101.839 99.2671 95.8848 97.1267 90.7008L97.1236 90.6933ZM31 91.0625L37.6194 103.768C40.0219 106.287 39.9057 110.278 37.3482 112.642C34.8294 115.006 30.8382 114.89 28.4744 112.371L9.4482 92.1821C7.08445 89.6634 7.20069 85.6721 9.71944 83.3083C12.2382 80.9446 16.2294 81.0608 18.5932 83.5796L31 91.0625Z" fill="#FFB02E"/>
<path d="M113.26 58.4305L68.5035 10.9618C63.5823 5.73051 54.941 7.08685 51.8798 13.5969L18.5935 83.5793L37.8523 104.001L109.695 74.8993C116.321 72.2255 118.181 63.6618 113.26 58.4305Z" fill="#F9C23C"/>
</svg>
